<?xml version="1.0" encoding="utf-8"?>
<!-- Generator: Adobe Illustrator 17.0.0, SVG Export Plug-In . SVG Version: 6.00 Build 0)  -->
<!DOCTYPE svg PUBLIC "-//W3C//DTD SVG 1.1//EN" "http://www.w3.org/Graphics/SVG/1.1/DTD/svg11.dtd">
<svg version="1.1"
	 id="svg4079" xmlns:svg="http://www.w3.org/2000/svg" xmlns:dc="http://purl.org/dc/elements/1.1/" xmlns:rdf="http://www.w3.org/1999/02/22-rdf-syntax-ns#" xmlns:cc="http://creativecommons.org/ns#"
	 xmlns="http://www.w3.org/2000/svg" xmlns:xlink="http://www.w3.org/1999/xlink" x="0px" y="0px" width="350px" height="153px"
	 viewBox="0 0 350 153" enable-background="new 0 0 350 153" xml:space="preserve">
<g id="g4159" transform="matrix(0.45690404,0,0,0.45690404,93.40565,42.174847)">
	<path id="path4134" fill="#243F88" d="M169.388,161.327c-2.342-0.715-6.543-3.006-7.328-3.996c-0.51-0.644-0.684-2.741-0.576-6.977
		c0.184-7.251,0.862-8.83,7.677-17.886c10.071-13.382,16.577-20.585,24.562-27.197l2.806-2.323l-4.436-3.868
		c-2.44-2.128-10.161-8.166-17.159-13.418c-16.31-12.242-21.229-16.304-27.966-23.098c-9.295-9.372-14.656-17.025-18.129-25.882
		c-2.104-5.365-2.128-5.518-2.037-13.064c0.078-6.531,0.306-8.276,1.574-12.056c0.815-2.431,2.252-5.768,3.192-7.414
		c3.06-5.356,11.208-11.686,18.227-14.16c2.507-0.884,5.194-1.194,12.004-1.384c8.19-0.229,9.088-0.147,13.492,1.228
		c2.595,0.811,5.91,2.231,7.366,3.157c3.705,2.355,9.307,7.975,10.674,10.708c1.282,2.563,2.68,7.726,2.217,8.189
		c-0.165,0.165-1.282-0.706-2.482-1.936c-3.899-3.995-8.29-6.579-13.154-7.742c-6.357-1.521-11.668-1.869-18.125-1.187
		c-5.124,0.541-6.232,0.899-13.286,4.291c-7.075,3.402-7.91,3.973-10.351,7.071c-3.578,4.541-4.036,6.455-2.986,12.474
		c1.136,6.506,6.177,16.1,11.987,22.813c9.294,10.737,16.112,17.225,23.958,22.798c4.263,3.028,13.238,9.58,19.944,14.56
		c13.562,10.071,15.142,11.043,17.306,10.645c0.827-0.152,6.412-2.446,12.411-5.098c8.216-3.631,12.804-6.085,18.593-9.943
		l7.684-5.122l-0.353-6.914c-0.194-3.803-0.5-12.339-0.679-18.97c-0.412-15.263-0.489-15.788-2.3-15.788
		c-2.113,0-6.514,1.833-9.941,4.141c-2.177,1.466-4.026,3.493-6.429,7.047c-1.855,2.744-3.529,5.483-3.721,6.086
		c-0.489,1.542-1.33,1.365-1.766-0.372c-0.746-2.974,0.175-6.496,3.002-11.47c2.985-5.252,5.549-7.706,14.647-14.018
		c4.214-2.923,4.399-3.148,4.744-5.751c0.378-2.848,0.366-2.837,5.345-4.966l1.844-0.788l0.618,2.295
		c0.34,1.262,0.813,2.295,1.051,2.295c0.238,0,2.747-0.673,5.576-1.497c4.55-1.324,5.87-1.466,11.457-1.229
		c9.727,0.412,16.78,3.634,19.438,8.88c2.526,4.984,2.907,7.398,1.79,11.334c-3.727,13.136-5.717,17.345-11.41,24.136
		c-2.383,2.842-4.339,5.361-4.348,5.598c-0.021,0.541,0.371,0.56,9.456,0.468c19.416-0.196,28.446,3.384,31.039,12.306
		c0.871,2.997,0.914,4.051,0.333,8.109c-1.562,10.896-5.266,17.727-15.859,29.245c-11.429,12.427-30.66,25.238-44.792,29.839
		c-6.493,2.114-9.925,2.381-14.15,1.102c-3.079-0.932-3.699-1.384-5.428-3.951c-2.558-3.799-2.528-4.362,0.201-3.728
		c3.752,0.871,7.738,0.618,9.77-0.62l1.875-1.143l-0.381-23.685c-0.21-13.027-0.537-24.108-0.727-24.625
		c-0.297-0.807-0.875-0.639-4.078,1.189c-2.052,1.171-4.292,2.483-4.976,2.914c-1.075,0.678-1.557,0.644-3.54-0.25l-2.296-1.035
		l-2.201,1.63c-6.104,4.522-14.544,11.299-14.544,11.679c0,0.236,1.261,2.096,2.802,4.132c1.541,2.036,3.506,5.09,4.365,6.786
		l1.563,3.084l-0.96,5.765c-1.129,6.775-1.632,7.581-9.205,14.753c-6.677,6.323-8.234,7.497-17.398,13.112
		c-8.976,5.5-11.368,6.517-18.992,8.07C171.262,161.972,171.451,161.957,169.388,161.327z M184.315,148.021
		c3.56-0.81,15.021-5.865,18.098-7.982c3.131-2.155,8.207-9.548,9.255-13.483c1.02-3.829,0.976-6.916-0.124-8.594
		c-0.496-0.757-2.351-2.471-4.122-3.808l-3.219-2.431l-3.696,1.916c-4.473,2.319-14.606,11.848-20.897,19.649
		c-5.217,6.471-5.003,6.107-5.959,10.106c-1.034,4.326-1.006,5.142,0.186,5.383C175.435,149.101,181.493,148.663,184.315,148.021
		L184.315,148.021L184.315,148.021z M261.012,133.369c2.054-0.516,4.705-1.614,5.891-2.44c1.186-0.826,4.597-3.165,7.579-5.198
		c6.261-4.268,19.809-15.106,21.498-17.198c7.973-9.875,12.139-16.537,12.964-20.732c1.277-6.49-0.776-10.228-6.263-11.405
		c-3.697-0.793-21.558-0.846-28.185-0.084c-5.023,0.577-8.347,1.644-15.402,4.943l-4.162,1.946v25.17
		c0,13.844,0.172,25.342,0.383,25.553C255.888,134.499,256.912,134.399,261.012,133.369
		C261.012,133.369,261.012,133.369,261.012,133.369z M257.973,70.22c4.887-2.485,14.223-11.397,17.779-16.972
		c3.524-5.524,4.488-7.852,5.577-13.476c1.499-7.739,0.86-9.433-4.848-12.854c-4.274-2.562-17.551-1.971-22.057,0.982l-1.382,0.906
		l0.418,20.732c0.23,11.403,0.541,20.931,0.691,21.175C254.584,71.412,255.984,71.231,257.973,70.22L257.973,70.22L257.973,70.22z"
		/>
	<path id="path4136" fill="#243F88" d="M124.299,151.596c-4.062-1.463-5.313-2.21-5.641-3.366
		c-0.157-0.553-2.017-11.727-4.134-24.831c-2.117-13.104-4.008-24.004-4.203-24.222c-0.426-0.476-14.224,2.001-20.854,3.744
		l-4.735,1.245l-3.547,15.972c-1.951,8.785-3.707,16.133-3.904,16.329c-0.667,0.667-5.968,0.36-6.881-0.398
		c-1.382-1.147-1.128-4.981,0.846-12.801c1.459-5.781,3.986-17.201,3.986-18.017c0-0.123-2.002-0.239-4.449-0.257
		c-2.447-0.018-7.485-0.353-11.195-0.745c-3.71-0.391-6.746-0.655-6.746-0.585c0,0.594-4.713,23.376-5.167,24.979
		c-0.325,1.148-1.121,2.759-1.767,3.581l-1.176,1.495l-2.117-1.086c-4.108-2.107-5.942-5.131-11.171-18.421
		c-3.37-8.565-8.839-23.828-10.89-30.392c-1.638-5.243-2.618-3.742-6.769,10.366c-3.391,11.523-4.291,13.867-11.815,30.777
		c-6.795,15.271-7.475,16.388-11.087,18.219l-2.822,1.43l-1.769-2.015c-0.973-1.108-1.769-2.25-1.769-2.538
		c0-0.287-0.506-6.027-1.125-12.754c-0.619-6.727-1.664-18.82-2.323-26.872c-1.53-18.714-3.139-33.931-4.272-40.407
		c-1.378-7.876-1.286-8.553,1.392-10.326c3.14-2.078,4.306-1.938,6.069,0.725c1.471,2.222,1.496,2.462,4.013,38.26
		c1.393,19.813,2.662,36.153,2.82,36.311c0.514,0.514,2.498-2.367,4.661-6.765c3.263-6.637,5.488-13.038,16.268-46.797
		c3.516-11.012,4.877-13.95,6.667-14.399C20.274,56.637,22.16,57.55,23,59.12c0.337,0.629,1.124,4.305,1.75,8.168
		s2.156,10.641,3.4,15.061c1.244,4.421,2.911,11.138,3.705,14.927c1.174,5.606,2.055,8.094,4.731,13.357
		c1.809,3.557,3.558,6.385,3.888,6.284c1.911-0.584,3.854-9.256,8.096-36.13c3-19.003,3.697-26.045,3.711-37.473
		c0.011-8.902,0.164-10.67,1.1-12.733c2.069-4.556,6.342-5.577,7.38-1.763c1.227,4.506-3.649,60.876-5.713,66.037
		c-0.351,0.878-0.501,1.734-0.334,1.902c0.272,0.272,22.913-1.345,23.133-1.652c0.149-0.207,15.191-60.377,17.254-69.019
		c2.115-8.86,3.336-12.502,4.624-13.789c0.52-0.52,1.944-0.851,3.66-0.851c2.243,0,2.936,0.237,3.438,1.175
		c0.346,0.646,2.946,17.361,5.779,37.144c2.833,19.783,5.251,36.07,5.374,36.193c0.226,0.226,22.784-2.482,25.72-3.087
		c1.188-0.245,1.579-0.103,1.579,0.572c0,3.194-9.133,7.861-22.588,11.544c-2.988,0.818-3.321,1.056-3.044,2.178
		c0.614,2.48,8.356,44.983,8.994,49.374c0.5,3.445,0.492,4.673-0.037,5.311C127.755,152.866,127.839,152.871,124.299,151.596
		C124.299,151.596,124.299,151.596,124.299,151.596z M98.707,91.504l8.26-1.564l-0.39-8.962
		c-0.469-10.788-1.145-18.938-2.445-29.487c-0.831-6.743-1.119-7.894-1.971-7.894c-1.215,0-5.044,11.016-6.786,19.52
		c-1.222,5.965-6.596,27.759-7.277,29.509c-0.361,0.929-0.219,1.043,0.962,0.767C89.823,93.214,94.164,92.365,98.707,91.504
		C98.707,91.504,98.707,91.504,98.707,91.504z"/>
	<path id="path4138" fill="#243F88" d="M340.761,142.908c-6.907-0.631-8.64-1.587-12.278-6.776c-2.752-3.925-3.317-5.26-5.138-12.16
		l-2.047-7.751l-0.021-17.223c-0.026-21.607,1.633-43.464,3.99-52.561c2.196-8.475,2.043-13.601-0.32-10.724
		c-0.878,1.069-1.223,1.166-2.092,0.588c-0.572-0.381-2.332-1.447-3.911-2.37c-1.579-0.923-3.387-2.262-4.019-2.977l-1.148-1.299
		l10.621,0.353c15.933,0.529,26.386,2.982,38.523,9.039c4.83,2.411,7.621,5.151,12.954,12.718c3.956,5.614,5.361,9.177,5.361,13.598
		c0,4.876-1.649,24.462-2.372,28.18c-0.782,4.019-8.647,23.93-11.159,28.251c-1.048,1.802-3.922,5.836-6.387,8.964
		c-3.441,4.367-5.643,6.506-9.482,9.21c-2.75,1.938-5.334,3.486-5.741,3.441C345.687,143.365,343.287,143.139,340.761,142.908
		L340.761,142.908z M349.357,130.753c1.521-1.007,4.026-3.526,5.566-5.598c2.922-3.928,13.758-24.859,14.806-28.598
		c0.332-1.183,1.149-6.285,1.816-11.337c1.177-8.913,1.184-9.389,0.248-16.038c-1.133-8.045-1.555-9.179-5.233-14.048
		c-2.187-2.895-4.176-4.596-9.352-8c-6.121-4.025-7.034-4.434-13.233-5.929c-3.662-0.883-6.942-1.505-7.289-1.381
		c-0.346,0.123-0.786,1.862-0.977,3.864s-1.029,7.257-1.862,11.678c-2.281,12.101-3.017,18.304-3.788,31.926
		c-0.761,13.434-0.174,24.4,1.523,28.461c0.47,1.125,0.858,3.37,0.863,4.989c0.011,3.817,0.817,5.305,4.305,7.945
		C342.674,133.17,345.107,133.569,349.357,130.753z"/>
</g>
</svg>
